<svg height="512" viewBox="0 0 192 192" width="512" xmlns="http://www.w3.org/2000/svg"><path style="fill:#ffffff;" d="m96 0a96 96 0 1 0 96 96 96.108 96.108 0 0 0 -96-96zm-80 96a79.651 79.651 0 0 1 20.023-52.857 79.852 79.852 0 0 1 11.163 16.32l-10.764 5.382 7.156 14.31 9.468-4.733a79.862 79.862 0 0 1 2.56 13.578h-7.606v16h7.6a79.729 79.729 0 0 1 -2.56 13.577l-9.464-4.732-7.156 14.31 10.763 5.382a79.958 79.958 0 0 1 -11.153 16.328 79.647 79.647 0 0 1 -20.03-52.865zm31.758 63.766a95.917 95.917 0 0 0 13.752-20.066l6.912 3.456 7.156-14.31-7.984-3.992a95.793 95.793 0 0 0 4.072-20.854h8.334v-16h-8.333a95.73 95.73 0 0 0 -4.067-20.856l7.977-3.989-7.156-14.31-6.9 3.451a95.913 95.913 0 0 0 -13.767-20.059 79.8 79.8 0 0 1 96.492 0 95.913 95.913 0 0 0 -13.764 20.063l-6.9-3.451-7.156 14.31 7.977 3.989a95.73 95.73 0 0 0 -4.07 20.852h-8.333v16h8.334a95.793 95.793 0 0 0 4.072 20.853l-7.984 3.992 7.156 14.31 6.912-3.456a95.917 95.917 0 0 0 13.752 20.067 79.8 79.8 0 0 1 -96.484 0zm108.212-10.9a79.958 79.958 0 0 1 -11.155-16.328l10.763-5.382-7.156-14.31-9.464 4.732a79.729 79.729 0 0 1 -2.558-13.578h7.6v-16h-7.606a79.862 79.862 0 0 1 2.56-13.578l9.468 4.733 7.156-14.31-10.764-5.382a79.852 79.852 0 0 1 11.163-16.32 79.778 79.778 0 0 1 -.007 105.722z"/></svg>