<svg id="Capa_1" enable-background="new 0 0 511.399 511.399" height="512" viewBox="0 0 511.399 511.399" width="512" xmlns="http://www.w3.org/2000/svg"><path style="fill:#ffffff;" d="m434.738 438.067c1.04-.796 1.969-1.72 2.766-2.752 45.66-46.211 73.896-109.674 73.896-179.615 0-127.063-93.166-232.76-214.77-252.409-.368-.075-.737-.137-1.11-.184-12.98-2.039-26.277-3.107-39.82-3.107-98.228 0-183.682 55.685-226.493 137.136-.612.918-1.13 1.899-1.529 2.932-17.691 34.746-27.678 74.043-27.678 115.632 0 69.941 28.236 133.403 73.895 179.614.798 1.033 1.727 1.958 2.768 2.755 17.561 17.244 37.591 31.975 59.508 43.615.915.616 1.888 1.137 2.911 1.538 34.986 18.005 74.636 28.179 116.617 28.179 41.999 0 81.663-10.182 116.66-28.201 1.02-.403 1.994-.918 2.906-1.535 21.904-11.639 41.921-26.364 59.473-43.598zm-333.351-17.825 9.86-103.595 40.422-15.248 83.932 61.064 4.228 49.139-94.439 40.941c-15.966-8.984-30.735-19.85-44.003-32.301zm-49.367-261.727 98.695-21.994 23.549 37.156-32.348 99.337-40.322 15.21-67.325-76.264c3.696-18.745 9.713-36.666 17.751-53.445zm307.215-22.316 100.145 22.316c8.038 16.779 14.055 34.7 17.751 53.445l-67.741 76.738-51.451-16.071-31.645-97.611zm-60.697 50.481 29.895 92.211-78.46 56.927-78.386-57.029 30.015-92.172zm-28.661 224.188-4.246-49.346 83.146-60.326 51.434 16.065 9.802 102.982c-13.268 12.451-28.036 23.317-44.003 32.3zm167.359-21.22-7.489-78.68 51.611-58.466c.015 1.066.041 2.129.041 3.198 0 50.112-16.425 96.455-44.163 133.948zm.954-266.59-74.922-16.696-38.75-65.62c46.08 14.787 85.749 44.005 113.672 82.316zm-153.783-91.241 50.907 86.206-32.807 38.66-103.538-.068-23.642-37.304 51.667-87.494c9.402-1.199 18.983-1.817 28.706-1.817s19.304.618 28.707 1.817zm-97.524 8.924-38.75 65.62-74.923 16.696c27.923-38.31 67.592-67.529 113.673-82.316zm-156.842 211.76 51.611 58.465-7.489 78.682c-27.737-37.493-44.163-83.836-44.163-133.948 0-1.07.026-2.133.041-3.199zm152.388 216.681 73.27-31.764 73.271 31.764c-22.985 7.911-47.633 12.217-73.271 12.217-25.636 0-50.284-4.305-73.27-12.217z"/></svg>